<svg width="80" height="80" viewBox="0 0 80 80" fill="none" xmlns="http://www.w3.org/2000/svg">
<path d="M7.70001 37.4767C7.57689 36.9852 7.56743 36.4721 7.67236 35.9764C7.77729 35.4807 7.99384 35.0154 8.30556 34.616C8.61728 34.2165 9.01596 33.8934 9.4713 33.6711C9.92664 33.4489 10.4267 33.3334 10.9333 33.3333H69.0667C69.573 33.3335 70.0726 33.449 70.5277 33.671C70.9827 33.8931 71.3812 34.2159 71.6928 34.6149C72.0045 35.014 72.2211 35.4788 72.3263 35.9741C72.4315 36.4693 72.4225 36.9821 72.3 37.4733L66.2633 61.6167C65.9028 63.0589 65.0706 64.3393 63.8989 65.2543C62.7272 66.1693 61.2833 66.6665 59.7967 66.6667H20.2033C18.7167 66.6665 17.2728 66.1693 16.1011 65.2543C14.9294 64.3393 14.0972 63.0589 13.7367 61.6167L7.70001 37.4767Z" stroke="white" stroke-width="2" stroke-linejoin="round"/>
<path d="M30 46.6667V53.3333M50 46.6667V53.3333M20 33.3333L33.3333 13.3333M60 33.3333L46.6667 13.3333" stroke="white" stroke-width="2" stroke-linecap="round"/>
</svg>
