<svg width="114" height="76" viewBox="0 0 114 76" fill="none" xmlns="http://www.w3.org/2000/svg">
<path d="M0.75 0.5H113.25V75.5H0.75V0.5ZM57 19.25C61.9728 19.25 66.742 21.2254 70.2583 24.7417C73.7746 28.2581 75.75 33.0272 75.75 38C75.75 42.9728 73.7746 47.7419 70.2583 51.2583C66.742 54.7746 61.9728 56.75 57 56.75C52.0272 56.75 47.2581 54.7746 43.7417 51.2583C40.2254 47.7419 38.25 42.9728 38.25 38C38.25 33.0272 40.2254 28.2581 43.7417 24.7417C47.2581 21.2254 52.0272 19.25 57 19.25ZM25.75 13C25.75 16.3152 24.433 19.4946 22.0888 21.8388C19.7446 24.183 16.5652 25.5 13.25 25.5V50.5C16.5652 50.5 19.7446 51.817 22.0888 54.1612C24.433 56.5054 25.75 59.6848 25.75 63H88.25C88.25 59.6848 89.567 56.5054 91.9112 54.1612C94.2554 51.817 97.4348 50.5 100.75 50.5V25.5C97.4348 25.5 94.2554 24.183 91.9112 21.8388C89.567 19.4946 88.25 16.3152 88.25 13H25.75Z" fill="#5ADA75"/>
</svg>
