<svg width="125" height="125" viewBox="0 0 125 125" fill="none" xmlns="http://www.w3.org/2000/svg">
<path fill-rule="evenodd" clip-rule="evenodd" d="M9.15 115.85C18.3125 125 33.0375 125 62.5 125C91.9625 125 106.694 125 115.844 115.844C125 106.7 125 91.9625 125 62.5C125 33.0375 125 18.3062 115.844 9.15C106.7 0 91.9625 0 62.5 0C33.0375 0 18.3062 0 9.15 9.15C0 18.3125 0 33.0375 0 62.5C0 91.9625 0 106.7 9.15 115.85ZM104.687 87.5C104.687 88.7432 104.194 89.9355 103.315 90.8146C102.435 91.6936 101.243 92.1875 100 92.1875H25C23.7568 92.1875 22.5645 91.6936 21.6854 90.8146C20.8064 89.9355 20.3125 88.7432 20.3125 87.5C20.3125 86.2568 20.8064 85.0645 21.6854 84.1854C22.5645 83.3064 23.7568 82.8125 25 82.8125H100C101.243 82.8125 102.435 83.3064 103.315 84.1854C104.194 85.0645 104.687 86.2568 104.687 87.5ZM100 67.1875C101.243 67.1875 102.435 66.6936 103.315 65.8146C104.194 64.9355 104.687 63.7432 104.687 62.5C104.687 61.2568 104.194 60.0645 103.315 59.1854C102.435 58.3064 101.243 57.8125 100 57.8125H25C23.7568 57.8125 22.5645 58.3064 21.6854 59.1854C20.8064 60.0645 20.3125 61.2568 20.3125 62.5C20.3125 63.7432 20.8064 64.9355 21.6854 65.8146C22.5645 66.6936 23.7568 67.1875 25 67.1875H100ZM104.687 37.5C104.687 38.7432 104.194 39.9355 103.315 40.8146C102.435 41.6936 101.243 42.1875 100 42.1875H25C23.7568 42.1875 22.5645 41.6936 21.6854 40.8146C20.8064 39.9355 20.3125 38.7432 20.3125 37.5C20.3125 36.2568 20.8064 35.0645 21.6854 34.1854C22.5645 33.3064 23.7568 32.8125 25 32.8125H100C101.243 32.8125 102.435 33.3064 103.315 34.1854C104.194 35.0645 104.687 36.2568 104.687 37.5Z" fill="white"/>
</svg>
