<svg width="87" height="80" viewBox="0 0 87 80" fill="none" xmlns="http://www.w3.org/2000/svg">
<path d="M28.1412 6.66675H58.4471C69.9922 6.66675 79.3726 15.3334 79.3726 26.0001V54.0001C79.3726 59.1276 77.1679 64.0451 73.2436 67.6708C69.3193 71.2965 63.9969 73.3334 58.4471 73.3334H28.1412C16.5961 73.3334 7.2157 64.6668 7.2157 54.0001V26.0001C7.2157 20.8726 9.42034 15.9551 13.3446 12.3294C17.2689 8.70365 22.5914 6.66675 28.1412 6.66675ZM27.4196 13.3334C23.9749 13.3334 20.6713 14.5977 18.2356 16.8481C15.7998 19.0986 14.4314 22.1508 14.4314 25.3334V54.6667C14.4314 61.3001 20.24 66.6668 27.4196 66.6668H59.1686C62.6133 66.6668 65.917 65.4025 68.3527 63.152C70.7885 60.9016 72.1569 57.8493 72.1569 54.6667V25.3334C72.1569 18.7001 66.3483 13.3334 59.1686 13.3334H27.4196ZM62.2353 18.3334C63.4314 18.3334 64.5785 18.7724 65.4242 19.5538C66.27 20.3352 66.7451 21.395 66.7451 22.5001C66.7451 23.6052 66.27 24.665 65.4242 25.4464C64.5785 26.2278 63.4314 26.6667 62.2353 26.6667C61.0392 26.6667 59.8921 26.2278 59.0464 25.4464C58.2006 24.665 57.7255 23.6052 57.7255 22.5001C57.7255 21.395 58.2006 20.3352 59.0464 19.5538C59.8921 18.7724 61.0392 18.3334 62.2353 18.3334ZM43.2941 23.3334C48.0784 23.3334 52.6668 25.0894 56.0498 28.215C59.4328 31.3406 61.3334 35.5798 61.3334 40.0001C61.3334 44.4204 59.4328 48.6596 56.0498 51.7852C52.6668 54.9108 48.0784 56.6668 43.2941 56.6668C38.5098 56.6668 33.9215 54.9108 30.5385 51.7852C27.1555 48.6596 25.2549 44.4204 25.2549 40.0001C25.2549 35.5798 27.1555 31.3406 30.5385 28.215C33.9215 25.0894 38.5098 23.3334 43.2941 23.3334ZM43.2941 30.0001C40.4236 30.0001 37.6705 31.0536 35.6407 32.929C33.6109 34.8044 32.4706 37.3479 32.4706 40.0001C32.4706 42.6522 33.6109 45.1958 35.6407 47.0712C37.6705 48.9465 40.4236 50.0001 43.2941 50.0001C46.1647 50.0001 48.9177 48.9465 50.9475 47.0712C52.9773 45.1958 54.1177 42.6522 54.1177 40.0001C54.1177 37.3479 52.9773 34.8044 50.9475 32.929C48.9177 31.0536 46.1647 30.0001 43.2941 30.0001Z" fill="white"/>
</svg>
