<svg width="120" height="120" viewBox="0 0 120 120" fill="none" xmlns="http://www.w3.org/2000/svg">
<path d="M22.96 10V110H0V10H22.96ZM80.26 10C80.26 30.97 72.345 50.525 58.185 65.34L56.795 66.755L88.51 110H60.17L25.705 63L34.6 56.34C48.89 45.64 57.275 29.45 57.785 11.72L57.81 10H80.26ZM107.5 85C110.815 85 113.995 86.317 116.339 88.6612C118.683 91.0054 120 94.1848 120 97.5C120 100.815 118.683 103.995 116.339 106.339C113.995 108.683 110.815 110 107.5 110C104.185 110 101.005 108.683 98.6612 106.339C96.317 103.995 95 100.815 95 97.5C95 94.1848 96.317 91.0054 98.6612 88.6612C101.005 86.317 104.185 85 107.5 85Z" fill="#F6A3C7"/>
</svg>
