<svg width="100" height="100" viewBox="0 0 100 100" fill="none" xmlns="http://www.w3.org/2000/svg">
<path d="M71.875 21.875H28.125C12.6172 21.875 0 34.4922 0 50C0 65.5078 12.6172 78.125 28.125 78.125H71.875C87.3828 78.125 100 65.5078 100 50C100 34.4922 87.3828 21.875 71.875 21.875ZM71.875 71.875C67.5485 71.875 63.3192 70.5921 59.7219 68.1884C56.1246 65.7847 53.3208 62.3683 51.6651 58.3712C50.0095 54.3741 49.5763 49.9757 50.4203 45.7324C51.2644 41.4891 53.3478 37.5913 56.407 34.532C59.4663 31.4728 63.3641 29.3894 67.6074 28.5453C71.8507 27.7013 76.2491 28.1345 80.2462 29.7901C84.2433 31.4458 87.6597 34.2496 90.0634 37.8469C92.4671 41.4442 93.75 45.6735 93.75 50C93.7438 55.7997 91.4371 61.3601 87.3361 65.4611C83.2351 69.5621 77.6747 71.8688 71.875 71.875Z" fill="#14AE5C"/>
</svg>
