<svg width="91" height="80" viewBox="0 0 91 80" fill="none" xmlns="http://www.w3.org/2000/svg">
<path d="M84.9838 19.9999C82.0703 21.1666 78.9297 21.9333 75.6757 22.2999C79.0054 20.5333 81.5784 17.7333 82.7892 14.3666C79.6487 16.0333 76.1676 17.1999 72.4973 17.8666C69.5081 14.9999 65.3081 13.3333 60.5405 13.3333C51.6487 13.3333 44.3838 19.7333 44.3838 27.6333C44.3838 28.7666 44.5351 29.8666 44.8 30.8999C31.3297 30.2999 19.3351 24.5999 11.3514 15.9666C9.95135 18.0666 9.15676 20.5333 9.15676 23.1333C9.15676 28.0999 11.9946 32.4999 16.3838 34.9999C13.6973 34.9999 11.2 34.3333 9.00541 33.3333V33.4333C9.00541 40.3666 14.6054 46.1666 22.0216 47.4666C19.641 48.043 17.1407 48.1229 14.7189 47.6999C15.7466 50.5415 17.7593 53.0279 20.4741 54.8097C23.1889 56.5914 26.4693 57.5789 29.8541 57.6333C24.1166 61.635 17.0044 63.7979 9.68649 63.7666C8.4 63.7666 7.11351 63.6999 5.82703 63.5666C13.0162 67.6333 21.5676 69.9999 30.7243 69.9999C60.5405 69.9999 76.9243 48.1999 76.9243 29.2999C76.9243 28.6666 76.9243 28.0666 76.8865 27.4333C80.0649 25.4333 82.7892 22.8999 84.9838 19.9999Z" fill="white"/>
</svg>
