<svg width="120" height="121" viewBox="0 0 120 121" fill="none" xmlns="http://www.w3.org/2000/svg">
<path d="M77.0215 1.00005C76.0984 1.03697 75.2077 1.20313 74.28 1.43389L11.5384 16.72C4.1169 18.5385 -0.526176 26.0247 1.2969 33.4508L10.0938 69.3677C10.6269 71.5071 11.6648 73.4877 13.1207 75.1435C14.5765 76.7993 16.4079 78.0822 18.4615 78.8847V70.2308C18.4615 57.5062 28.8138 47.1539 41.5384 47.1539H99.6646L91.0107 11.5277C90.2453 8.43091 88.4355 5.69274 85.8863 3.77497C83.3371 1.85719 80.2092 0.87713 77.0215 1.00005ZM82.6431 20.9062L86.3954 36.6262L70.8184 40.3739L66.9231 24.797L82.6431 20.9062ZM41.5384 56.3847C33.8954 56.3847 27.6923 62.5877 27.6923 70.2308V107.154C27.6923 114.797 33.8954 121 41.5384 121H106.154C113.797 121 120 114.797 120 107.154V70.2308C120 62.5877 113.797 56.3847 106.154 56.3847H41.5384ZM41.5384 63.7416H106.154C109.712 63.7416 112.643 66.6724 112.643 70.2308V74.8462H35.0492V70.2308C35.0492 66.6724 37.98 63.7416 41.5384 63.7416ZM35.0492 88.6924H112.643V107.154C112.643 110.712 109.712 113.643 106.154 113.643H41.5384C39.8204 113.633 38.1754 112.947 36.9606 111.732C35.7457 110.517 35.0589 108.872 35.0492 107.154V88.6924Z" fill="#0D99FF"/>
</svg>
